<?xml version="1.0" encoding="utf-8"?>
<!-- Generator: Adobe Illustrator 16.0.0, SVG Export Plug-In . SVG Version: 6.00 Build 0)  -->
<!DOCTYPE svg PUBLIC "-//W3C//DTD SVG 1.1//EN" "http://www.w3.org/Graphics/SVG/1.1/DTD/svg11.dtd">
<svg version="1.1" id="Layer_1" xmlns="http://www.w3.org/2000/svg" xmlns:xlink="http://www.w3.org/1999/xlink" x="0px" y="0px"
	 width="160px" height="160px" viewBox="0 0 160 160" enable-background="new 0 0 160 160" xml:space="preserve">
<g>
	<circle fill="#F79820" cx="80" cy="80" r="78.735"/>
</g>
<g>
	<path fill="#FFFFFF" d="M39.165,105.739c0.336,0.923,0.601,1.749,0.797,2.472c0.194,0.724,0.337,1.373,0.424,1.948
		c0.215,1.589,0.047,3.081-0.506,4.479c-1.025,2.677-3.084,4.579-6.175,5.704c-2.608,0.948-5.013,1.025-7.213,0.225
		c-2.267-0.817-4-2.454-5.198-4.915l4.537-1.648c0.524,0.899,1.082,1.537,1.673,1.913c1.38,0.877,2.966,0.988,4.759,0.336
		c3.305-1.204,4.222-3.824,2.751-7.865l-0.993-2.729c-1.126,2.483-2.859,4.152-5.201,5.007c-2.663,0.968-5.194,0.798-7.595-0.51
		c-2.423-1.33-4.169-3.46-5.235-6.391c-1.037-2.851-1.122-5.562-0.256-8.136c0.943-2.736,2.82-4.616,5.629-5.639
		c2.462-0.896,4.843-0.727,7.143,0.516l-0.803-2.21l4.516-1.644L39.165,105.739z M31.457,98.054c-0.69-1.895-1.75-3.227-3.18-3.993
		c-1.453-0.786-2.982-0.886-4.588-0.302c-1.712,0.624-2.833,1.749-3.361,3.378c-0.482,1.463-0.396,3.095,0.26,4.897
		c0.646,1.777,1.625,3.07,2.935,3.879c1.429,0.889,3.007,1.017,4.732,0.391c1.727-0.63,2.863-1.755,3.409-3.375
		C32.172,101.456,32.104,99.83,31.457,98.054z"/>
	<path fill="#FFFFFF" d="M34.275,76.7c-0.287-0.791-0.248-1.578,0.118-2.362c0.367-0.785,0.951-1.323,1.753-1.615
		c0.817-0.297,1.618-0.263,2.402,0.103c0.779,0.353,1.318,0.936,1.614,1.753c0.298,0.816,0.264,1.617-0.103,2.401
		c-0.352,0.78-0.937,1.318-1.753,1.615c-0.816,0.297-1.616,0.263-2.401-0.103C35.121,78.127,34.578,77.529,34.275,76.7z
		 M42.433,82.935l7.115,19.55l-4.516,1.644l-7.115-19.549L42.433,82.935z"/>
	<path fill="#FFFFFF" d="M54.362,83.366L59.944,98.7l-4.536,1.651l-5.581-15.335l-1.606,0.585l-1.534-4.215l1.605-0.584
		l-2.747-7.546c-0.896-2.462-1.101-4.356-0.615-5.685c0.661-1.847,2.116-3.181,4.363-3.999c0.803-0.293,1.899-0.425,3.287-0.4
		l1.68,4.616l-0.548-0.073c-1.157-0.139-2.05-0.095-2.679,0.133c-0.803,0.292-1.24,0.777-1.312,1.455
		c-0.075,0.665,0.178,1.799,0.762,3.405l2.345,6.442l4.917-1.79l1.534,4.215L54.362,83.366z"/>
	<path fill="#FFFFFF" d="M76.885,104.58l-4.516,1.644L61.383,76.038l4.516-1.644l0.775,2.127c1.132-2.426,2.829-4.052,5.089-4.875
		c2.689-0.979,5.264-0.795,7.724,0.552c2.482,1.324,4.269,3.484,5.36,6.481c1.065,2.93,1.079,5.692,0.037,8.283
		c-1.033,2.572-2.875,4.34-5.524,5.306c-2.288,0.834-4.669,0.661-7.142-0.513L76.885,104.58z M80.236,80.381
		c-0.681-1.873-1.744-3.214-3.189-4.021c-1.463-0.816-2.978-0.938-4.543-0.369c-1.66,0.604-2.794,1.668-3.407,3.194
		c-0.611,1.525-0.575,3.225,0.106,5.099c0.667,1.833,1.732,3.158,3.196,3.973c1.441,0.795,2.991,0.889,4.65,0.285
		c1.565-0.569,2.642-1.629,3.23-3.176C80.895,83.809,80.88,82.148,80.236,80.381z"/>
	<path fill="#FFFFFF" d="M87.584,77.412c-1.027-2.824-0.892-5.592,0.41-8.309c1.298-2.716,3.399-4.602,6.303-5.658
		c2.918-1.062,5.754-0.966,8.516,0.288c2.732,1.263,4.627,3.347,5.684,6.25c1.066,2.93,0.95,5.752-0.349,8.468
		c-1.318,2.707-3.457,4.601-6.413,5.675c-2.931,1.066-5.751,0.956-8.461-0.33C90.571,82.537,88.674,80.409,87.584,77.412z
		 M92.229,75.812c0.711,1.954,1.796,3.31,3.254,4.066c1.489,0.763,3.109,0.824,4.862,0.186c1.768-0.643,2.972-1.726,3.615-3.249
		c0.641-1.521,0.618-3.233-0.074-5.132c-0.691-1.901-1.773-3.226-3.243-3.979c-1.489-0.761-3.11-0.822-4.864-0.184
		c-1.726,0.628-2.913,1.713-3.565,3.252C91.562,72.312,91.567,73.992,92.229,75.812z"/>
	<path fill="#FFFFFF" d="M124.184,87.365l-4.518,1.644L108.68,58.823l4.517-1.644l0.774,2.127c1.131-2.426,2.828-4.051,5.089-4.874
		c2.69-0.979,5.265-0.795,7.724,0.552c2.483,1.324,4.269,3.484,5.359,6.481c1.068,2.931,1.079,5.691,0.037,8.283
		c-1.032,2.572-2.873,4.342-5.521,5.307c-2.29,0.832-4.671,0.661-7.143-0.515L124.184,87.365z M127.535,63.166
		c-0.683-1.873-1.746-3.214-3.191-4.021c-1.462-0.816-2.978-0.938-4.543-0.369c-1.659,0.604-2.794,1.668-3.406,3.194
		c-0.612,1.525-0.575,3.225,0.105,5.099c0.666,1.833,1.734,3.157,3.196,3.972c1.439,0.795,2.99,0.89,4.649,0.286
		c1.566-0.569,2.643-1.629,3.232-3.177C128.192,66.594,128.179,64.933,127.535,63.166z"/>
	<path fill="#FFFFFF" d="M137.579,62.624l-8.766-24.083l4.536-1.65l8.766,24.083L137.579,62.624z M138.752,67.47
		c-0.273-0.749-0.233-1.498,0.114-2.246c0.351-0.748,0.905-1.261,1.669-1.539c0.76-0.278,1.518-0.241,2.264,0.107
		c0.749,0.348,1.262,0.905,1.541,1.668c0.281,0.776,0.247,1.538-0.1,2.286c-0.342,0.73-0.9,1.236-1.675,1.519
		c-0.79,0.288-1.549,0.261-2.281-0.08C139.556,68.845,139.044,68.273,138.752,67.47z"/>
</g>
</svg>
